<svg width="64" height="64" viewBox="0 0 64 64" fill="none" xmlns="http://www.w3.org/2000/svg">
<path d="M60.9922 31.8568C60.9922 29.6477 59.2013 27.8568 56.9922 27.8568H33.2775C31.0684 27.8568 29.2775 29.6477 29.2775 31.8568V46.902C29.2775 49.1111 31.0684 50.902 33.2775 50.902H43.809C45.1888 50.902 46.506 51.4775 47.4435 52.4899L50.0655 55.3217C50.9559 56.2833 52.5635 55.6533 52.5635 54.3428C52.5635 52.4425 54.104 50.902 56.0043 50.902H57.7779C59.5531 50.902 60.9922 49.4629 60.9922 47.6876V31.8568Z" stroke="white" stroke-width="2"/>
<path d="M37.9141 36.4893H52.3632" stroke="white" stroke-width="2" stroke-linecap="round"/>
<path d="M37.9141 43.7144H46.3427" stroke="white" stroke-width="2" stroke-linecap="round"/>
<path d="M29.4901 41.3065H22.9475C21.0536 41.3065 19.3223 42.3765 18.4754 44.0704L17.2701 46.481C16.1149 48.7913 12.6328 47.9693 12.6328 45.3862V45.3862C12.6328 43.133 10.8062 41.3065 8.55297 41.3065H7.81638C5.15637 41.3065 3 39.1501 3 36.4901V15C3 12.2386 5.23858 10 8 10H36.531C39.2924 10 41.531 12.2386 41.531 15V28.0614" stroke="white" stroke-width="2"/>
<path d="M11.4297 22.0413L33.1034 22.0413" stroke="white" stroke-width="2" stroke-linecap="round"/>
<path d="M11.4297 30.4697L23.4706 30.4697" stroke="white" stroke-width="2" stroke-linecap="round"/>
</svg>
