<svg width="65" height="64" viewBox="0 0 65 64" fill="none" xmlns="http://www.w3.org/2000/svg">
<rect x="12.5" y="7" width="40" height="50" rx="1" stroke="white" stroke-width="2"/>
<path d="M20.5 43L44.5 43" stroke="white" stroke-width="2" stroke-linecap="round"/>
<path d="M20.5 49L35.5 49" stroke="white" stroke-width="2" stroke-linecap="round"/>
<path d="M43.4014 22.9013C42.7949 16.8806 37.4223 12.4915 31.4016 13.098C25.3808 13.7046 20.9917 19.0771 21.5983 25.0979C22.2048 31.1186 27.5773 35.5077 33.5981 34.9012C35.2025 34.7395 36.691 34.2395 38 33.4789" stroke="white" stroke-width="2" stroke-linecap="round"/>
<mask id="path-5-inside-1_679_5823" fill="white">
<path d="M44.4577 25.0818C45.01 25.0852 45.4593 25.5365 45.4097 26.0866C45.2885 27.4315 44.9397 28.7487 44.3761 29.9812C43.8124 31.2136 43.0441 32.3389 42.106 33.3103C41.7223 33.7076 41.0871 33.6628 40.7233 33.2473L34.9803 26.6869C34.4124 26.0382 34.8768 25.023 35.7389 25.0283L44.4577 25.0818Z"/>
</mask>
<path d="M44.4577 25.0818C45.01 25.0852 45.4593 25.5365 45.4097 26.0866C45.2885 27.4315 44.9397 28.7487 44.3761 29.9812C43.8124 31.2136 43.0441 32.3389 42.106 33.3103C41.7223 33.7076 41.0871 33.6628 40.7233 33.2473L34.9803 26.6869C34.4124 26.0382 34.8768 25.023 35.7389 25.0283L44.4577 25.0818Z" stroke="white" stroke-width="4" mask="url(#path-5-inside-1_679_5823)"/>
</svg>
