<svg width="65" height="64" viewBox="0 0 65 64" fill="none" xmlns="http://www.w3.org/2000/svg">
<path d="M46.5 23.9998V8.00022C46.5 6.89565 45.6046 6.00022 44.5 6.00022L6.50001 6.00001C5.39544 6 4.5 6.89544 4.5 8.00001V56C4.5 57.1046 5.39543 58 6.5 58H29.5" stroke="white" stroke-width="2" stroke-linecap="round"/>
<path d="M24.6778 33.536V32.104C23.9311 31.96 23.2965 31.6587 22.7738 31.2C22.2511 30.736 21.8805 30.1813 21.6618 29.536L23.1658 28.992C23.3845 29.4827 23.7045 29.8827 24.1258 30.192C24.5471 30.5013 25.0378 30.656 25.5978 30.656C26.1898 30.656 26.6591 30.5093 27.0058 30.216C27.3578 29.9227 27.5338 29.496 27.5338 28.936C27.5338 28.5467 27.4245 28.2187 27.2058 27.952C26.9925 27.68 26.7071 27.4507 26.3498 27.264C25.9978 27.072 25.6165 26.896 25.2058 26.736C24.8271 26.592 24.4485 26.4347 24.0698 26.264C23.6965 26.088 23.3551 25.8773 23.0458 25.632C22.7418 25.3867 22.4965 25.088 22.3098 24.736C22.1231 24.3787 22.0298 23.9467 22.0298 23.44C22.0298 22.768 22.2591 22.1707 22.7178 21.648C23.1818 21.1253 23.8351 20.8 24.6778 20.672V19.4H26.2938V20.688C26.9338 20.8107 27.4591 21.0613 27.8698 21.44C28.2858 21.8133 28.5685 22.2587 28.7178 22.776L27.2458 23.264C27.1125 22.9493 26.8885 22.6827 26.5738 22.464C26.2591 22.2453 25.8511 22.136 25.3498 22.136C24.8325 22.136 24.4298 22.2507 24.1418 22.48C23.8538 22.704 23.7098 23.024 23.7098 23.44C23.7098 23.7547 23.8111 24.0213 24.0138 24.24C24.2165 24.4533 24.4831 24.64 24.8138 24.8C25.1498 24.96 25.5151 25.1147 25.9098 25.264C26.2885 25.408 26.6698 25.5733 27.0538 25.76C27.4378 25.9467 27.7925 26.176 28.1178 26.448C28.4485 26.72 28.7125 27.056 28.9098 27.456C29.1125 27.856 29.2138 28.3413 29.2138 28.912C29.2138 29.5253 29.0858 30.0587 28.8298 30.512C28.5791 30.9653 28.2325 31.328 27.7898 31.6C27.3525 31.872 26.8538 32.048 26.2938 32.128V33.536H24.6778Z" fill="white"/>
<path d="M19.4205 36.2617L19.9491 35.4128H19.9491L19.4205 36.2617ZM27.7282 37.782L27.922 38.7631H27.922L27.7282 37.782ZM34.8341 33.2174L35.6458 33.8015L34.8341 33.2174ZM36.9056 25.0297L35.9138 25.1576L36.9056 25.0297ZM32.8254 17.635L33.4624 16.8642V16.8642L32.8254 17.635ZM24.7942 15.0217L24.8556 16.0198L24.7942 15.0217ZM17.1436 18.5992L16.417 17.9121H16.417L17.1436 18.5992ZM15.9372 30.8367C15.7091 30.3337 15.1165 30.1109 14.6135 30.339C14.1105 30.5671 13.8877 31.1598 14.1158 31.6628L15.9372 30.8367ZM18.8919 37.1105C21.5834 38.7867 24.8113 39.3774 27.922 38.7631L27.5345 36.801C24.9215 37.3171 22.21 36.8209 19.9491 35.4128L18.8919 37.1105ZM27.922 38.7631C31.0327 38.1487 33.7937 36.3751 35.6458 33.8015L34.0225 32.6332C32.4667 34.7951 30.1475 36.2849 27.5345 36.801L27.922 38.7631ZM35.6458 33.8015C37.4979 31.2279 38.3028 28.0466 37.8974 24.9018L35.9138 25.1576C36.2543 27.7991 35.5782 30.4714 34.0225 32.6332L35.6458 33.8015ZM37.8974 24.9018C37.492 21.7571 35.9066 18.8839 33.4624 16.8642L32.1884 18.4059C34.2416 20.1025 35.5733 22.516 35.9138 25.1576L37.8974 24.9018ZM33.4624 16.8642C31.0181 14.8444 27.8976 13.829 24.7328 14.0236L24.8556 16.0198C27.514 15.8564 30.1352 16.7093 32.1884 18.4059L33.4624 16.8642ZM24.7328 14.0236C21.568 14.2181 18.5954 15.6082 16.417 17.9121L17.8702 19.2862C19.7001 17.3509 22.1971 16.1832 24.8556 16.0198L24.7328 14.0236ZM16.417 17.9121C14.2386 20.2161 13.0171 23.2618 13 26.4326L15 26.4433C15.0144 23.7799 16.0404 21.2215 17.8702 19.2862L16.417 17.9121ZM14.1158 31.6628C15.1289 33.8966 16.7842 35.798 18.8919 37.1105L19.9491 35.4128C18.1787 34.3103 16.7882 32.7132 15.9372 30.8367L14.1158 31.6628Z" fill="white"/>
<path d="M11.5 24.5L13.1964 26.3253C13.5508 26.7065 14.1384 26.7522 14.5474 26.4303L17 24.5" stroke="white" stroke-width="2" stroke-linecap="round"/>
<path d="M56.3855 36.8427C56.2381 37.0979 55.972 37.385 55.5582 37.7222C55.1476 38.0569 54.6572 38.3898 54.1011 38.766C54.077 38.7823 54.0529 38.7986 54.0286 38.815C52.9812 39.5232 51.7007 40.389 50.8423 41.5278C50.1237 42.4811 49.5805 43.9006 49.1242 45.0932C49.1044 45.1451 49.0847 45.1965 49.0652 45.2474C48.8182 45.8921 48.5906 46.4802 48.3577 46.9788C48.1178 47.4926 47.9135 47.818 47.7473 47.9899C47.5849 48.1578 47.4555 48.2036 47.3371 48.2172C47.1899 48.2341 46.97 48.2087 46.6387 48.0851C46.1197 47.8915 45.5736 47.5643 44.9015 47.1616C44.6452 47.008 44.3705 46.8434 44.072 46.6711C43.7752 46.4997 43.4957 46.3443 43.2341 46.1988C42.544 45.8151 41.9774 45.5001 41.5402 45.141C41.2603 44.9111 41.1205 44.7272 41.0568 44.5842C41.0051 44.4683 40.9799 44.3312 41.0413 44.11C41.1046 43.8825 41.2815 43.5449 41.6061 43.0809C41.921 42.6308 42.3169 42.1409 42.7529 41.6052C42.7881 41.562 42.8236 41.5185 42.8594 41.4745C43.6652 40.4857 44.6267 39.3056 45.0898 38.202C45.6394 36.8919 45.7498 35.3562 45.8403 34.0975C45.8426 34.0653 45.8449 34.0334 45.8472 34.0016C45.8955 33.3326 45.9394 32.7418 46.0245 32.2193C46.1103 31.6929 46.2263 31.3184 46.374 31.0626C48.6737 27.0795 52.8172 27.1872 54.6686 28.2561C56.5201 29.325 58.6851 32.8596 56.3855 36.8427Z" stroke="white" stroke-width="2"/>
<path d="M50.0944 61.3731C50.0811 61.3963 49.9335 61.5975 49.2124 61.648C48.5337 61.6954 47.5789 61.5852 46.3891 61.2868C44.0231 60.6935 40.9529 59.4143 37.762 57.572C34.571 55.7297 31.928 53.7104 30.2312 51.9581C29.3779 51.0768 28.8051 50.3051 28.5068 49.6936C28.19 49.0439 28.2905 48.8155 28.3038 48.7923C28.3172 48.7692 28.4648 48.5679 29.1859 48.5175C29.8646 48.47 30.8193 48.5802 32.0092 48.8786C34.3752 49.4719 37.4454 50.7512 40.6363 52.5934C43.8272 54.4357 46.4702 56.455 48.167 58.2073C49.0204 59.0886 49.5932 59.8603 49.8914 60.4718C50.2083 61.1215 50.1078 61.35 50.0944 61.3731Z" stroke="white" stroke-width="2"/>
<path d="M28.2827 48.7756C28.2827 48.7756 30.5295 44.8825 31.1878 43.7423C32.2577 41.8892 37.5439 42.9382 44.0297 46.6828C50.5155 50.4274 54.0671 54.4809 52.9972 56.3339C52.3389 57.4741 50.0915 61.3669 50.0915 61.3669" stroke="white" stroke-width="2"/>
</svg>
