<svg width="65" height="64" viewBox="0 0 65 64" fill="none" xmlns="http://www.w3.org/2000/svg">
<path d="M2.5 47L16.6659 24.6399C17.4469 23.4071 19.2427 23.3988 20.035 24.6244L34.5 47" stroke="white" stroke-width="2" stroke-linecap="round"/>
<path d="M18.5 23.7003L23.6674 23.7002M55.5 46.7002L52.7342 42.5342" stroke="white" stroke-width="2" stroke-linecap="round"/>
<path d="M36.8594 37.5401L25.3086 19.5401C24.8815 18.8745 25.3594 18 26.1502 18H49.1214C49.462 18 49.7791 18.1733 49.963 18.4599L61.5138 36.4599C61.9409 37.1255 61.463 38 60.6722 38H37.701C37.3605 38 37.0433 37.8267 36.8594 37.5401Z" stroke="white" stroke-width="2" stroke-linecap="round"/>
<path d="M33.3047 18L46.1389 38M41.6469 18L54.4812 38" stroke="white" stroke-width="2" stroke-linecap="round"/>
<path d="M30.4141 27.5H55.4408" stroke="white" stroke-width="2" stroke-linecap="round"/>
</svg>
