<?xml version="1.0" encoding="utf-8"?>
<!-- Generator: Adobe Illustrator 24.0.1, SVG Export Plug-In . SVG Version: 6.00 Build 0)  -->
<svg version="1.1" id="Layer_1" xmlns="http://www.w3.org/2000/svg" xmlns:xlink="http://www.w3.org/1999/xlink" x="0px" y="0px"
	 viewBox="0 0 773 175.1" style="enable-background:new 0 0 773 175.1;" xml:space="preserve">
<style type="text/css">
	.st0{fill:#050505;stroke:#050505;stroke-miterlimit:10;}
	.st1{fill:#050505;}
	.st2{fill:url(#SVGID_1_);}
</style>
<line class="st0" x1="452.4" y1="40.2" x2="452.4" y2="134.9"/>
<path class="st1" d="M477.1,63.7l-1.4,4.7h-3.2c0.6-1.8,5-16,5.6-17.9h4.1l5.8,17.9h-3.3l-1.5-4.7H477.1z M482.6,61.1
	c-1.3-4-2.1-6.6-2.5-8.2l0,0c-0.5,2.1-1.4,4.8-2.4,8.2H482.6z"/>
<path class="st1" d="M492.9,64.3c0.2,1.2,1.3,2.1,2.5,2c1.5,0,2.2-0.6,2.2-1.6s-0.8-1.4-2.9-2s-4.3-2.2-4.3-4s1.1-4,4.8-4
	s4.9,1.8,5.1,4h-3c-0.2-1.1-1.1-1.8-2.2-1.7c-1.1,0-1.7,0.5-1.7,1.4s0.5,1.2,2.5,1.7c3.6,1,4.7,2.2,4.7,4.4c0,2.2-2.2,4.1-5.3,4.1
	s-5.1-1.4-5.4-4.3H492.9z"/>
<path class="st1" d="M506.2,64.3c0.1,1.2,1.2,2.1,2.4,2c0,0,0.1,0,0.1,0c1.4,0,2.1-0.6,2.1-1.6s-0.8-1.4-2.9-2s-4.3-2.2-4.3-4
	s1.1-4,4.9-4c3.8,0,4.9,1.8,5,4h-3c-0.1-1-1-1.8-2.1-1.7c0,0,0,0,0,0c-1.2,0-1.8,0.5-1.8,1.4s0.5,1.2,2.6,1.7s4.6,2.2,4.6,4.4
	c0,2.2-2.1,4.1-5.2,4.1s-5.2-1.4-5.4-4.3H506.2z"/>
<path class="st1" d="M528.8,61.5c0,3.9-1.8,7.1-6.3,7.1s-6.1-3.4-6.1-7.1s1.9-6.8,6.3-6.8S528.8,57.8,528.8,61.5 M519.5,61.5
	c0,2.9,1.1,4.7,3.1,4.7s3.1-1.8,3.1-4.7s-1.1-4.3-3.2-4.3S519.5,58.9,519.5,61.5"/>
<path class="st1" d="M543.1,63.8c-0.2,2.9-2.7,5-5.6,4.8c0,0,0,0,0,0c-4,0-5.9-2.5-5.9-6.9s2.2-7,6-7s5.4,2.9,5.5,4.9h-3
	c-0.2-1.3-0.9-2.5-2.5-2.5s-2.9,1.8-2.9,4.5c0,2.7,1,4.6,2.8,4.6s2.2-1,2.6-2.4H543.1z"/>
<path class="st1" d="M546.3,49.4h3.1v3.1h-3.1V49.4z M546.3,55h3.1v13.4h-3.1V55z"/>
<path class="st1" d="M563.6,65.1c0,0.9,0.1,2.4,0.2,3.3h-2.7c-0.1-0.6-0.2-1.2-0.2-1.8c-0.6,1.2-1.8,2-3.9,2s-4.4-2.1-4.4-4.1
	s1.6-4.3,6.3-4.3h1.7v-1.1c0-1.2-0.4-2.2-2.2-2.2c-1.2-0.1-2.2,0.7-2.3,1.9c0,0,0,0.1,0,0.1h-3c0.2-2.1,1.5-4.2,5.4-4.2
	s5.1,1.1,5.1,4.3L563.6,65.1z M560.7,62.2h-1.8c-2.7,0-3.2,1.1-3.2,2.1c-0.1,1,0.7,1.9,1.7,1.9c0.1,0,0.3,0,0.4,0
	c2.3,0,2.9-1.5,2.9-3.7V62.2z"/>
<path class="st1" d="M566.1,55h1.9v-3.7h3.1V55h2.5v2.4h-2.5v7.4c0,1,0.2,1.4,1.3,1.4h0.9v2.2c-0.7,0.2-1.3,0.2-2,0.2
	c-2.4,0-3.3-0.9-3.3-3.3v-7.9h-1.9V55z"/>
<path class="st1" d="M576.5,49.4h3v3.1h-3V49.4z M576.5,55h3v13.4h-3V55z"/>
<path class="st1" d="M595.3,61.5c0,3.9-1.9,7.1-6.3,7.1s-6.1-3.4-6.1-7.1s1.9-6.8,6.3-6.8S595.3,57.8,595.3,61.5 M586,61.5
	c0,2.9,1.1,4.7,3.1,4.7s3-1.8,3-4.7s-1-4.3-3.1-4.3S586,58.9,586,61.5"/>
<path class="st1" d="M598.6,59.2c0.1-1.4,0-2.8-0.1-4.2h3c0.1,0.6,0.1,1.2,0.1,1.8c0.8-1.4,2.2-2.2,3.8-2.1c2.7,0,4.3,1.7,4.3,4.9
	v8.8h-3.1v-8.2c0-1.7-0.5-2.9-2.3-2.9s-2.7,1.2-2.7,3.7v7.4h-3V59.2z"/>
<path class="st1" d="M632.9,63.8c-0.3,2.9-2.8,5-5.7,4.8c-4,0-5.9-2.5-5.9-6.9s2.2-7,6.1-7s5.3,2.9,5.4,4.9h-3
	c-0.2-1.3-0.8-2.5-2.5-2.5s-2.9,1.8-2.9,4.5c0,2.7,1,4.6,2.8,4.6s2.3-1,2.6-2.4H632.9z"/>
<path class="st1" d="M646.5,65.1c0,0.9,0.1,2.4,0.2,3.3H644c-0.1-0.6-0.2-1.2-0.2-1.8c-0.6,1.2-1.8,2-3.9,2s-4.4-2.1-4.4-4.1
	s1.6-4.3,6.3-4.3h1.7v-1.1c0-1.2-0.3-2.2-2.2-2.2c-1.2-0.1-2.2,0.7-2.3,1.9c0,0,0,0.1,0,0.1h-2.9c0.1-2.1,1.4-4.2,5.3-4.2
	s5.1,1.1,5.1,4.3L646.5,65.1z M643.6,62.2h-1.8c-2.7,0-3.2,1.1-3.2,2.1c-0.1,1,0.7,1.9,1.7,1.9c0.1,0,0.3,0,0.4,0
	c2.3,0,2.9-1.5,2.9-3.7V62.2z"/>
<path class="st1" d="M650.4,59.2V55h3c0,0.2,0.1,1.2,0.1,1.8c0.7-1.4,2.2-2.2,3.8-2.1c2.7,0,4.2,1.7,4.2,4.9v8.8h-3.1v-8.2
	c0-1.7-0.4-2.9-2.2-2.9s-2.7,1.2-2.7,3.7v7.4h-3.1V59.2z"/>
<path class="st1" d="M675.7,65.1c0,0.9,0.1,2.4,0.2,3.3h-2.7c-0.1-0.6-0.2-1.2-0.2-1.8c-0.5,1.2-1.8,2-3.8,2s-4.4-2.1-4.4-4.1
	s1.5-4.3,6.2-4.3h1.7v-1.1c0-1.2-0.3-2.2-2.1-2.2c-1.1-0.2-2.1,0.6-2.3,1.7c0,0.1,0,0.2,0,0.3h-3c0.1-2.1,1.4-4.2,5.3-4.2
	s5.1,1.1,5.1,4.3V65.1z M672.8,62.2H671c-2.6,0-3.1,1.1-3.1,2.1c-0.1,1,0.7,1.8,1.7,1.9c0.1,0,0.2,0,0.3,0c2.3,0,2.9-1.5,2.9-3.7
	L672.8,62.2z"/>
<path class="st1" d="M691.1,49.4v19h-3c0-0.4-0.1-1.2-0.1-1.8c-0.6,1.3-1.7,2-3.8,2s-5.2-2.8-5.2-6.9s2.1-7,5.7-7s3,0.8,3.3,1.4
	v-6.7H691.1z M682.1,61.6c0,2.7,1.1,4.5,3,4.5s3-1.8,3-4.6s-0.7-4.2-2.8-4.2S682.1,58.7,682.1,61.6"/>
<path class="st1" d="M695.1,49.4h3v3.1h-3V49.4z M695.1,55h3v13.4h-3V55z"/>
<path class="st1" d="M704.6,62.3c0,2,0.8,3.9,2.9,3.9c1.2,0.1,2.2-0.7,2.6-1.8h3c-0.6,2.6-3,4.4-5.7,4.2c-4.2,0-5.9-3-5.9-6.9
	s1.7-7,6.1-7s5.7,3.2,5.7,6.6c0,0.1-0.1,0.9-0.1,1L704.6,62.3z M710.3,60.3c-0.1-1.8-0.8-3.2-2.8-3.2s-2.8,1.8-2.8,3.2H710.3z"/>
<path class="st1" d="M716.6,59.2c0.1-1.4,0-2.8-0.1-4.2h3c0.1,0.6,0.1,1.2,0.1,1.8c0.8-1.4,2.2-2.2,3.8-2.1c2.7,0,4.3,1.7,4.3,4.9
	v8.8h-3.1v-8.2c0-1.7-0.5-2.9-2.2-2.9s-2.7,1.2-2.7,3.7v7.4h-3.1V59.2z"/>
<path class="st1" d="M731.6,59.2c0.1-1.4,0-2.8-0.1-4.2h3c0.1,0.6,0.1,1.2,0.1,1.8c0.8-1.4,2.2-2.2,3.8-2.1c2.7,0,4.3,1.7,4.3,4.9
	v8.8h-3.1v-8.2c0-1.7-0.5-2.9-2.2-2.9s-2.7,1.2-2.7,3.7v7.4h-3.1V59.2z"/>
<path class="st1" d="M749.1,62.3c0,2,0.8,3.9,2.9,3.9c1.2,0.1,2.2-0.7,2.6-1.8h3c-0.6,2.6-3,4.4-5.7,4.2c-4.2,0-5.9-3-5.9-6.9
	s1.7-7,6.1-7s5.7,3.2,5.7,6.6c0,0.1-0.1,0.9-0.1,1L749.1,62.3z M754.8,60.3c-0.1-1.8-0.8-3.2-2.8-3.2s-2.8,1.8-2.8,3.2H754.8z"/>
<path class="st1" d="M484.1,77.8v19h-3c0-0.4-0.1-1.2-0.1-1.8c-0.6,1.3-1.7,2-3.8,2s-5.2-2.8-5.2-6.9s2.1-7,5.7-7
	c2.1,0,3,0.8,3.3,1.4v-6.7H484.1z M475.2,90c0,2.7,1,4.5,3,4.5s2.9-1.8,2.9-4.6s-0.7-4.2-2.8-4.2S475.2,87.1,475.2,90"/>
<path class="st1" d="M490.6,90.7c0,2,0.8,3.9,2.9,3.9c1.2,0.1,2.3-0.7,2.6-1.8h3c-0.6,2.6-3,4.4-5.7,4.2c-4.2,0-5.9-3-5.9-6.9
	s1.7-7,6.1-7s5.7,3.2,5.7,6.6c0,0.3,0,0.7-0.1,1L490.6,90.7z M496.3,88.7c-0.1-1.8-0.8-3.2-2.8-3.2s-2.7,1.8-2.8,3.2H496.3z"/>
<rect x="510.8" y="77.8" class="st1" width="3.1" height="18.9"/>
<polygon class="st1" points="517.9,84.5 517.7,80.2 517.7,77.8 520.5,77.8 520.5,80.2 520.2,84.5 "/>
<path class="st1" d="M525.8,90.7c0,2,0.8,3.9,2.9,3.9c1.2,0.1,2.2-0.7,2.5-1.8h3c-0.5,2.6-2.9,4.4-5.6,4.2c-4.3,0-5.9-3-5.9-6.9
	s1.6-7,6-7s5.7,3.2,5.7,6.6v1L525.8,90.7z M531.4,88.7c0-1.8-0.7-3.2-2.7-3.2s-2.8,1.8-2.9,3.2H531.4z M533.3,77.5l-3.7,3.8h-2.7
	l2.8-3.8H533.3z"/>
<path class="st1" d="M537.8,87.6c0-2.8-0.1-3.6-0.1-4.2h3c0,0.2,0.1,1.2,0.1,1.8c0.8-1.4,2.2-2.2,3.8-2.1c2.7,0,4.2,1.7,4.2,4.9v8.8
	h-3v-8.2c0-1.7-0.5-2.9-2.3-2.9s-2.7,1.2-2.7,3.7v7.4h-3V87.6z"/>
<path class="st1" d="M555.3,90.7c0,2,0.8,3.9,2.9,3.9c1.2,0.1,2.2-0.7,2.5-1.8h3c-0.5,2.6-2.9,4.4-5.6,4.2c-4.3,0-5.9-3-5.9-6.9
	s1.6-7,6-7s5.7,3.2,5.7,6.6v1L555.3,90.7z M560.9,88.7c0-1.8-0.7-3.2-2.7-3.2s-2.8,1.8-2.9,3.2H560.9z"/>
<path class="st1" d="M567.3,87.9c0-2.2,0-3.7-0.1-4.5h3c0.1,0.8,0.1,1.6,0.1,2.4c0.7-1.7,2.3-2.7,4.1-2.6v3.1
	c-2.8,0-4.1,1.2-4.1,4.2v6.3h-3V87.9z"/>
<path class="st1" d="M588.1,95.5c0,4.2-1.7,6.7-6.2,6.7s-5.4-2.3-5.6-4.3h3.1c0.2,1.2,1.2,1.9,2.7,1.9s3-1.5,3-4.1v-0.9
	c-0.7,1.3-2.2,2.1-3.7,1.9c-3.2,0-5.3-2.6-5.3-6.7s2.5-6.9,5.5-6.9s3.1,0.8,3.4,1.6s0.1-1.1,0.1-1.3h3V95.5z M579.3,89.9
	c0,2.6,1.1,4.2,2.9,4.2s3-1.3,3-4.2s-0.5-4.2-2.9-4.2S579.3,87,579.3,89.9"/>
<path class="st1" d="M592,77.8h3v3.1h-3V77.8z M592,83.4h3v13.4h-3V83.4z"/>
<path class="st1" d="M601.5,90.7c0,2,0.8,3.9,2.9,3.9c1.2,0.1,2.2-0.7,2.6-1.8h3c-0.6,2.6-3,4.4-5.7,4.2c-4.2,0-5.9-3-5.9-6.9
	s1.6-7,6-7s5.7,3.2,5.7,6.6v1L601.5,90.7z M607.1,88.7c0-1.8-0.7-3.2-2.7-3.2s-2.8,1.8-2.8,3.2H607.1z"/>
<path class="st1" d="M621.7,87.9v-4.5h2.9c0.1,0.8,0.1,1.6,0.1,2.4c0.7-1.7,2.4-2.7,4.2-2.6v3.1c-2.9,0-4.1,1.2-4.1,4.2v6.3h-3.1
	L621.7,87.9z"/>
<path class="st1" d="M633.6,90.7c0,2,0.8,3.9,2.9,3.9c1.2,0.1,2.3-0.7,2.6-1.8h3c-0.6,2.6-3,4.4-5.7,4.2c-4.2,0-5.9-3-5.9-6.9
	s1.7-7,6.1-7s5.7,3.2,5.7,6.6c0,0.3,0,0.7-0.1,1L633.6,90.7z M639.3,88.7c-0.1-1.8-0.8-3.2-2.8-3.2s-2.7,1.8-2.8,3.2H639.3z"/>
<path class="st1" d="M645.6,87.6v-4.2h3c0,0.2,0.1,1.2,0.1,1.8c0.7-1.4,2.2-2.2,3.8-2.1c2.7,0,4.2,1.7,4.2,4.9v8.8h-3.1v-8.2
	c0-1.7-0.4-2.9-2.2-2.9s-2.7,1.2-2.7,3.7v7.4h-3.1V87.6z"/>
<path class="st1" d="M672.4,89.9c0,3.9-1.8,7.1-6.2,7.1s-6.2-3.4-6.2-7.1s1.9-6.8,6.3-6.8S672.4,86.2,672.4,89.9 M663.1,89.9
	c0,2.9,1.1,4.7,3.2,4.7s3-1.8,3-4.7s-1-4.3-3.1-4.3S663.1,87.3,663.1,89.9"/>
<path class="st1" d="M686.6,92.9v3.9h-2.9c-0.1-0.4-0.1-1.1-0.2-1.8c-0.7,1.4-2.2,2.1-3.7,2c-2.5,0-4.1-1.5-4.1-4.7v-8.9h3v8.4
	c0,1.5,0.5,2.6,2.2,2.6s2.6-1,2.6-3.6v-7.4h3.1L686.6,92.9z"/>
<path class="st1" d="M692.6,83.4c1.4,4.9,2.5,8.3,2.9,10.4l0,0c0.3-1.9,1.8-6.4,3-10.4h3L697,96.8h-3.3l-4.4-13.4H692.6z"/>
<path class="st1" d="M706.2,90.7c0,2,0.8,3.9,2.9,3.9c1.2,0.1,2.2-0.7,2.6-1.8h3c-0.6,2.6-3,4.4-5.7,4.2c-4.2,0-5.9-3-5.9-6.9
	s1.7-7,6-7s5.7,3.2,5.7,6.6v1L706.2,90.7z M711.8,88.7c0-1.8-0.7-3.2-2.7-3.2s-2.8,1.8-2.8,3.2H711.8z"/>
<rect x="718.2" y="77.8" class="st1" width="3.1" height="18.9"/>
<path class="st1" d="M735.5,93.5c0,0.9,0.1,2.4,0.2,3.3H733c-0.1-0.6-0.2-1.2-0.2-1.8c-0.6,1.2-1.9,2-3.9,2s-4.4-2.1-4.4-4.1
	s1.6-4.3,6.3-4.3h1.7v-1.1c0-1.2-0.4-2.2-2.2-2.2c-1.1-0.2-2.1,0.6-2.3,1.7c0,0.1,0,0.2,0,0.3h-3c0.2-2.1,1.5-4.2,5.4-4.2
	s5.1,1.1,5.1,4.3L735.5,93.5z M732.6,90.6h-1.8c-2.7,0-3.2,1.1-3.2,2.1c-0.1,1,0.7,1.9,1.7,1.9c0.1,0,0.3,0,0.4,0
	c2.3,0,2.9-1.5,2.9-3.7V90.6z"/>
<path class="st1" d="M739.4,77.8h3.1V85c0.5-1,1.6-1.9,3.8-1.9s5.1,2.9,5.1,6.5s-1.8,7.4-5.6,7.4c-1.4,0.1-2.7-0.5-3.4-1.7
	c0,0.5,0,1-0.1,1.5h-3c0.1-0.9,0.1-2.6,0.1-4L739.4,77.8z M748.3,89.8c0-2.4-0.9-4.1-3-4.1s-3,1.5-3,4.2s0.7,4.6,3,4.6
	S748.3,92.6,748.3,89.8"/>
<rect x="754.8" y="77.8" class="st1" width="3.1" height="18.9"/>
<path class="st1" d="M764.3,90.7c0,2,0.8,3.9,3,3.9c1.1,0,2.2-0.7,2.5-1.8h3c-0.6,2.6-3,4.4-5.7,4.2c-4.2,0-5.9-3-5.9-6.9
	s1.7-7,6.1-7s5.7,3.2,5.7,6.6v1L764.3,90.7z M770,88.7c-0.1-1.8-0.8-3.2-2.8-3.2s-2.7,1.8-2.8,3.2H770z"/>
<path class="st1" d="M478.6,120.5h-4.9v3.5h5.4v1.1h-6.5v-9.8h6.3v1.1h-5.2v3h4.9L478.6,120.5z M478.6,112.3l-2.5,2h-1.2l2-2H478.6z
	"/>
<path class="st1" d="M490.6,120.2c0,2.7-1.5,5.1-4.6,5.1s-4.6-2.3-4.6-5.1s1.7-5.1,4.7-5.1S490.6,117.2,490.6,120.2 M482.8,120.2
	c0,2.1,1.1,4,3.2,4s3.2-1.9,3.2-4s-1-4-3.2-4S482.8,118.1,482.8,120.2"/>
<polygon class="st1" points="493.8,115.3 495.1,115.3 495.1,124 500.2,124 500.1,125.2 493.8,125.2 "/>
<rect x="502.9" y="115.3" class="st1" width="1.3" height="9.9"/>
<polygon class="st1" points="514.1,120.5 509.1,120.5 509.1,124 514.5,124 514.4,125.2 507.9,125.2 507.9,115.3 514.3,115.3 
	514.3,116.4 509.1,116.4 509.1,119.4 514.1,119.4 "/>
<path class="st1" d="M517.3,125.1v-9.8h1.7c1.5,2.3,4.5,7.2,5.1,8.3l0,0c-0.1-1.3-0.1-2.9-0.1-4.5v-3.8h1.3v9.8h-1.7l-5.1-8.5l0,0
	c0.1,1.1,0.1,2.8,0.1,4.6v3.9H517.3z"/>
<rect x="528.7" y="123.1" class="st1" width="1.3" height="2.1"/>
<path class="st1" d="M538.9,122.4c0.2,1.2,1,1.8,2.5,1.8s2.1-0.7,2.1-1.6s-0.5-1.6-2.5-2.1s-3.1-1.3-3.1-2.7s1.1-2.7,3.3-2.7
	s3.3,1.4,3.5,2.7h-1.4c-0.2-1-1.1-1.7-2.1-1.6c-1.2,0-1.9,0.5-1.9,1.5s0.5,1.3,2.3,1.7s3.3,1.8,3.3,3s-1.2,2.9-3.6,2.9
	s-3.6-1.4-3.8-2.9L538.9,122.4z"/>
<path class="st1" d="M556.6,120.2c0,2.7-1.5,5.1-4.7,5.1s-4.5-2.3-4.5-5.1s1.7-5.1,4.7-5.1S556.6,117.2,556.6,120.2 M548.8,120.2
	c0,2.1,1.1,4,3.2,4s3.2-1.9,3.2-4s-1-4-3.2-4S548.8,118.1,548.8,120.2"/>
<polygon class="st1" points="559.8,115.3 561.1,115.3 561.1,124 566.2,124 566,125.2 559.8,125.2 "/>
<path class="st1" d="M570.7,122.2l-1,2.9h-1.4l3.6-9.8h1.6l3.6,9.8h-1.3l-1.1-2.9H570.7z M574.3,121.1l-1.7-4.8l0,0
	c-0.2,0.9-0.8,2.5-1.5,4.8H574.3z"/>
<rect x="579.8" y="115.3" class="st1" width="1.3" height="9.9"/>
<path class="st1" d="M586.1,120.8v4.3h-1.3v-9.8h3.8c2.1,0,3.2,1.1,3.2,2.6c0.1,1.1-0.6,2.1-1.7,2.3c0.8,0.3,1.5,0.9,1.5,2.6v0.4
	c-0.1,0.6,0,1.3,0.1,1.9h-1.3c-0.1-0.7-0.1-1.4-0.1-2.1v-0.2c0-1.4-0.4-2-2.2-2L586.1,120.8z M586.1,119.7h2.1
	c1.5,0,2.2-0.6,2.2-1.7s-0.7-1.6-2-1.6h-2.3V119.7z"/>
<polygon class="st1" points="601.3,120.5 596.3,120.5 596.3,124 601.7,124 601.6,125.2 595.1,125.2 595.1,115.3 601.5,115.3 
	601.5,116.4 596.3,116.4 596.3,119.4 601.3,119.4 "/>
<rect x="604.3" y="123.1" class="st1" width="1.3" height="2.1"/>
<path class="st1" d="M614.4,122.4c0.2,1.2,1.3,1.9,2.5,1.8c1.6,0,2.2-0.7,2.2-1.6s-0.5-1.6-2.5-2.1s-3.1-1.3-3.1-2.7
	s1.1-2.7,3.3-2.7s3.3,1.4,3.4,2.7h-1.3c-0.2-0.9-0.7-1.6-2.2-1.6s-1.8,0.5-1.8,1.5s0.5,1.3,2.2,1.7s3.4,1.8,3.4,3s-1.2,2.9-3.6,2.9
	s-3.6-1.4-3.8-2.9L614.4,122.4z"/>
<polygon class="st1" points="625.6,116.4 622.4,116.4 622.4,115.3 630.1,115.3 630.1,116.4 626.9,116.4 626.9,125.2 625.6,125.2 "/>
<path class="st1" d="M640.9,120.2c0,2.7-1.6,5.1-4.7,5.1s-4.5-2.3-4.5-5.1s1.6-5.1,4.6-5.1S640.9,117.2,640.9,120.2 M633.1,120.2
	c0,2.1,1.1,4,3.2,4s3.2-1.9,3.2-4s-1.1-4-3.2-4S633.1,118.1,633.1,120.2"/>
<path class="st1" d="M651.9,122.3c-0.4,1.8-2,3.1-3.9,3c-3,0-4.5-2.3-4.5-5.1s1.5-5.1,4.5-5.1c1.9-0.2,3.6,1.1,3.9,3h-1.3
	c-0.3-1.2-1.4-2-2.6-1.9c-2.2,0-3.1,2-3.1,4s0.9,4,3.1,4c1.2,0,2.3-0.7,2.6-1.9H651.9z"/>
<path class="st1" d="M654.9,115.3h1.3v4.8c0.8-0.7,3.3-3.2,4.8-4.8h1.7l-4.3,4.1l4.5,5.7h-1.6l-3.8-4.8l-1.3,1.1v3.7h-1.3V115.3z"/>
<path class="st1" d="M667.2,122.2l-1,2.9h-1.3l3.5-9.8h1.6l3.7,9.8h-1.4l-1.1-2.9H667.2z M670.9,121.1c-1-2.6-1.5-4-1.7-4.8l0,0
	c-0.3,0.9-0.9,2.5-1.6,4.8H670.9z"/>
<path class="st1" d="M684,125.1h-1c-0.1-0.4-0.1-0.9-0.1-1.3c-0.7,1-1.9,1.6-3.1,1.5c-2.8,0-4.3-2.2-4.3-5s1.6-5.2,4.6-5.2
	c1.9-0.2,3.6,1.1,4,3h-1.3c-0.3-1.2-1.5-2-2.8-1.9c-2.2,0-3.2,1.9-3.2,4s1,4,3.2,4s2.8-1.5,2.8-3.2H680v-1.1h4L684,125.1z"/>
<polygon class="st1" points="693.7,120.5 688.8,120.5 688.8,124 694.2,124 694,125.2 687.5,125.2 687.5,115.3 694,115.3 694,116.4 
	688.8,116.4 688.8,119.4 693.7,119.4 "/>
<rect x="696.8" y="123.1" class="st1" width="1.3" height="2.1"/>
<linearGradient id="SVGID_1_" gradientUnits="userSpaceOnUse" x1="8.064781e-02" y1="90.357" x2="155.25" y2="90.357" gradientTransform="matrix(1 0 0 -1 -0.1 177.9)">
	<stop  offset="9.000000e-02" style="stop-color:#050505"/>
	<stop  offset="0.3" style="stop-color:#1F1F1F"/>
	<stop  offset="0.53" style="stop-color:#404040"/>
	<stop  offset="0.73" style="stop-color:#666666"/>
	<stop  offset="0.89" style="stop-color:#999999"/>
	<stop  offset="1" style="stop-color:#B1B1B1"/>
</linearGradient>
<path class="st2" d="M60.4,159.8c-3.4,3.4-3.4,8.9,0,12.3c3.4,3.4,9,3.4,12.4,0c3.4-3.4,3.4-8.9,0-12.3
	C69.4,156.4,63.9,156.3,60.4,159.8C60.5,159.7,60.4,159.8,60.4,159.8 M101.9,159.5c-3.6,3.6-3.6,9.3,0,12.9c3.6,3.6,9.3,3.6,12.9,0
	l0,0c3.5-3.6,3.5-9.3,0-12.9C111.3,155.9,105.5,155.9,101.9,159.5C101.9,159.5,101.9,159.5,101.9,159.5 M23.4,138.6
	c-3.3,3.3-3.3,8.5,0,11.8s8.5,3.3,11.8,0c3.2-3.3,3.2-8.5,0-11.8c-1.6-1.5-3.7-2.4-5.9-2.4C27.1,136.2,25,137.1,23.4,138.6
	 M98.3,136.5c-2.1,1.7-2.4,4.8-0.6,6.9c1.7,2.1,4.8,2.4,6.9,0.6c0.2-0.2,0.4-0.4,0.6-0.6c1.9-1.9,1.9-5,0-6.9
	c-1-0.9-2.2-1.4-3.5-1.4C100.4,135.1,99.2,135.6,98.3,136.5 M138.9,137.8c-3.7,3.7-3.7,9.7,0.1,13.4c3.7,3.7,9.7,3.7,13.4-0.1
	c3.7-3.7,3.7-9.7,0-13.4C148.7,134.1,142.7,134,138.9,137.8C138.9,137.8,138.9,137.8,138.9,137.8 M69.6,136.2
	c-2.1,2.1-2.1,5.5,0,7.6c2.1,2.1,5.5,2.1,7.6,0c2.1-2.1,2.1-5.5,0-7.6c0,0,0,0,0,0c-1-1-2.4-1.6-3.8-1.6
	C72,134.6,70.6,135.2,69.6,136.2 M123.9,122.3c-1.8,1.7-1.8,4.6-0.1,6.4c1.7,1.8,4.6,1.8,6.4,0.1c1.8-1.7,1.8-4.6,0.1-6.4
	c0,0,0,0-0.1-0.1C128.5,120.6,125.6,120.6,123.9,122.3 M43.9,121.3c-2.3,2.3-2.3,6,0,8.3c2.3,2.3,6,2.3,8.3,0c2.3-2.3,2.3-6,0-8.3
	c0,0,0,0,0,0c-1.1-1.1-2.6-1.7-4.1-1.7C46.5,119.5,45,120.2,43.9,121.3 M2.3,101.6c-3.1,3-3.1,8-0.1,11c0,0,0,0,0.1,0.1
	c3.1,3.1,8.1,3.1,11.2,0c0,0,0,0,0,0c3.1-3,3.1-8,0.1-11c0,0,0,0-0.1-0.1c-1.5-1.5-3.5-2.4-5.6-2.4C5.8,99.2,3.8,100.1,2.3,101.6
	 M29,95.6c-2.5,2.5-2.5,6.5-0.1,9.1s6.5,2.5,9.1,0.1c2.5-2.5,2.5-6.5,0.1-9.1c0,0,0,0-0.1-0.1C35.6,93.1,31.6,93.1,29,95.6
	C29.1,95.5,29,95.6,29,95.6 M28.7,66.9c-2.4,3-1.9,7.3,1.1,9.7c2.5,2,6.1,2,8.6,0c2.6-2.7,2.6-7,0-9.7c-1.3-1.3-3.1-2-4.9-2
	C31.7,64.9,30,65.6,28.7,66.9 M2.6,60.1c-2.8,3-2.7,7.8,0.4,10.6c2.9,2.7,7.3,2.7,10.2,0c2.9-2.9,3-7.5,0.1-10.5
	c0,0-0.1-0.1-0.1-0.1c-1.4-1.4-3.3-2.2-5.3-2.2C5.9,57.9,4,58.7,2.6,60.1 M42.9,41.2C40,44,40,48.7,42.8,51.5c0,0,0.1,0.1,0.1,0.1
	c2.8,2.8,7.3,2.9,10.2,0.1c0,0,0.1-0.1,0.1-0.1c2.9-2.8,2.9-7.5,0-10.3S45.8,38.4,42.9,41.2 M120.8,40.2c-3.4,3.4-3.4,9,0,12.4
	s9,3.4,12.4,0c3.4-3.4,3.4-9,0-12.4c-1.7-1.6-3.9-2.6-6.2-2.6C124.7,37.6,122.4,38.6,120.8,40.2 M67.8,26.4c-3,3.1-3,8,0.1,11.1
	c3.1,3,8,3,11,0c3-3,3.1-7.9,0.1-10.9c0,0-0.1-0.1-0.1-0.1c-1.4-1.5-3.4-2.3-5.5-2.3C71.3,24.1,69.3,24.9,67.8,26.4 M95.8,26
	c-3.3,3.3-3.3,8.5,0,11.8c3.3,3.3,8.5,3.3,11.8,0c3.3-3.2,3.3-8.5,0.1-11.7c-1.6-1.6-3.7-2.5-6-2.5C99.5,23.6,97.4,24.5,95.8,26
	 M141.6,24c-2.3,2.3-2.3,6,0,8.3c2.3,2.3,6,2.3,8.3,0s2.3-6,0-8.3c0,0,0,0,0,0c-1-1.2-2.5-1.8-4.1-1.8
	C144.2,22.2,142.7,22.9,141.6,24 M24.4,23.1c-2.7,2.8-2.7,7.2,0.1,9.9s7.2,2.7,9.9-0.1s2.7-7.2-0.1-9.9c-1.3-1.3-3.1-2-4.9-2
	C27.5,21,25.7,21.7,24.4,23.1 M104,2.2c-2.5,2.4-2.5,6.3-0.1,8.8c0,0,0.1,0.1,0.1,0.1c2.4,2.5,6.3,2.5,8.8,0.1c0,0,0.1-0.1,0.1-0.1
	c2.4-2.5,2.4-6.4,0-8.9c-1.2-1.2-2.8-1.8-4.5-1.8C106.8,0.4,105.2,1,104,2.2 M62,1.9c-2.8,2.4-3.1,6.6-0.7,9.4
	c2.4,2.8,6.6,3.1,9.4,0.7c0.2-0.2,0.5-0.4,0.7-0.7c2.6-2.6,2.6-6.9,0-9.5C68.8-0.6,64.6-0.6,62,1.9"/>
<path class="st1" d="M198.1,62.9c-0.5,2.9-2.5,5.7-7,5.7s-7.5-4-7.5-9.2s2.5-9.2,7.7-9.2s6.4,2.9,6.7,5.8h-3.1
	c-0.4-1.7-1.2-3.2-3.7-3.2s-4.3,3.2-4.3,6.6s1,6.7,4.3,6.7s3.3-1.7,3.7-3.2L198.1,62.9z"/>
<path class="st1" d="M212,65.1c0,0.9,0.1,2.4,0.2,3.3h-2.7c-0.1-0.6-0.2-1.2-0.2-1.8c-0.5,1.2-1.8,2-3.8,2s-4.4-2.1-4.4-4.1
	s1.5-4.3,6.2-4.3h1.7v-1.1c0-1.2-0.3-2.2-2.1-2.2c-1.1-0.2-2.1,0.6-2.3,1.7c0,0.1,0,0.2,0,0.3h-3c0.2-2.1,1.4-4.2,5.3-4.2
	s5.1,1.1,5.1,4.3V65.1z M209.1,62.2h-1.8c-2.6,0-3.1,1.1-3.1,2.1c-0.1,1,0.7,1.8,1.7,1.9c0.1,0,0.2,0,0.3,0c2.3,0,2.9-1.5,2.9-3.7
	L209.1,62.2z"/>
<path class="st1" d="M216,59.2c0-2.8-0.1-3.6-0.1-4.2h3c0,0.2,0.1,1.2,0.1,1.8c0.8-1.4,2.2-2.2,3.8-2.1c2.7,0,4.2,1.7,4.2,4.9v8.8
	h-3v-8.2c0-1.7-0.5-2.9-2.3-2.9S219,58.5,219,61v7.4h-3V59.2z"/>
<path class="st1" d="M241.3,65.1c0,1.1,0,2.2,0.2,3.3h-2.7c-0.1-0.6-0.2-1.2-0.2-1.8c-0.6,1.2-1.9,2-3.9,2s-4.4-2.1-4.4-4.1
	s1.5-4.3,6.2-4.3h1.8v-1.1c0-1.2-0.4-2.2-2.2-2.2c-1.1-0.2-2.1,0.6-2.3,1.7c0,0.1,0,0.2,0,0.3h-3c0.2-2.1,1.5-4.2,5.4-4.2
	s5.1,1.1,5.1,4.3L241.3,65.1z M238.4,62.2h-1.8c-2.7,0-3.2,1.1-3.2,2.1c-0.1,1,0.7,1.9,1.7,1.9c0.1,0,0.3,0,0.4,0
	c2.2,0,2.9-1.5,2.9-3.7V62.2z"/>
<path class="st1" d="M256.6,49.4v19h-2.9c-0.1-0.6-0.2-1.2-0.2-1.8c-0.6,1.3-1.6,2-3.8,2s-5.2-2.8-5.2-6.9s2.1-7,5.8-7
	c2,0,2.9,0.8,3.2,1.4v-6.7H256.6z M247.7,61.6c0,2.7,1,4.5,3,4.5s3-1.8,3-4.6s-0.8-4.2-2.9-4.2S247.7,58.7,247.7,61.6"/>
<path class="st1" d="M260.6,49.4h3.1v3.1h-3.1V49.4z M260.6,55h3.1v13.4h-3.1V55z"/>
<path class="st1" d="M277.9,65.1c0,0.9,0.1,2.4,0.2,3.3h-2.7c-0.1-0.6-0.2-1.2-0.2-1.8c-0.6,1.2-1.8,2-3.9,2s-4.4-2.1-4.4-4.1
	s1.6-4.3,6.3-4.3h1.7v-1.1c0-1.2-0.3-2.2-2.2-2.2c-1.2-0.1-2.2,0.7-2.3,1.9c0,0,0,0.1,0,0.1h-2.9c0.1-2.1,1.4-4.2,5.3-4.2
	s5.1,1.1,5.1,4.3V65.1z M275,62.2h-1.8c-2.7,0-3.2,1.1-3.2,2.1c-0.1,1,0.7,1.9,1.7,1.9c0.1,0,0.3,0,0.4,0c2.3,0,2.9-1.5,2.9-3.7
	V62.2z"/>
<path class="st1" d="M281.8,59.2V55h3c0,0.2,0.1,1.2,0.1,1.8c0.7-1.4,2.2-2.2,3.8-2.1c2.7,0,4.2,1.7,4.2,4.9v8.8h-3.1v-8.2
	c0-1.7-0.4-2.9-2.2-2.9s-2.7,1.2-2.7,3.7v7.4h-3.1L281.8,59.2z"/>
<path class="st1" d="M308.7,60.7v7.7h-3.1V50.5h6.9c3.3,0,5.7,1.6,5.7,4.7c0.1,1.9-1,3.6-2.8,4.2c1.8,0.7,2.5,2.1,2.5,4.4v0.4
	c0,1.4,0,2.8,0.2,4.2H315c-0.3-1.4-0.4-2.8-0.3-4.2v-0.5c0-2.2-0.8-3-3.3-3L308.7,60.7z M308.7,58.2h2.9c1.9,0,3.4-0.5,3.4-2.7
	s-1.2-2.5-2.9-2.5h-3.4V58.2z"/>
<path class="st1" d="M324.4,62.3c0,2,0.8,3.9,2.9,3.9c1.2,0.1,2.2-0.7,2.6-1.8h3c-0.6,2.6-3,4.4-5.7,4.2c-4.2,0-5.9-3-5.9-6.9
	s1.6-7,6-7s5.7,3.2,5.7,6.6v1L324.4,62.3z M330,60.3c0-1.8-0.7-3.2-2.7-3.2s-2.8,1.8-2.8,3.2H330z"/>
<path class="st1" d="M336.4,59.2c0.1-1.4,0-2.8-0.1-4.2h3c0.1,0.6,0.1,1.2,0.1,1.8c0.8-1.4,2.2-2.2,3.8-2.1c2.7,0,4.3,1.7,4.3,4.9
	v8.8h-3.1v-8.2c0-1.7-0.5-2.9-2.3-2.9s-2.7,1.2-2.7,3.7v7.4h-3L336.4,59.2z"/>
<path class="st1" d="M353.9,62.3c0,2,0.8,3.9,2.9,3.9c1.2,0.1,2.2-0.7,2.6-1.8h3c-0.6,2.6-3,4.4-5.7,4.2c-4.2,0-5.9-3-5.9-6.9
	s1.6-7,6-7s5.7,3.2,5.7,6.6v1L353.9,62.3z M359.5,60.3c0-1.8-0.7-3.2-2.7-3.2s-2.8,1.8-2.8,3.2H359.5z"/>
<path class="st1" d="M367.6,55c1.3,5.4,2,8.5,2.3,10.2l0,0l2.6-10.2h2.8c1.3,4.9,2.2,8.6,2.4,10.1h0.1c0.2-1.4,0.8-3.7,2.4-10.1h3
	l-4,13.4h-3.1c-1-4.2-2-7.6-2.3-9.5l0,0c-0.4,2-1.5,5.7-2.5,9.5h-3.2L364.3,55H367.6z"/>
<path class="st1" d="M395.9,65.1c0,0.9,0,2.4,0.1,3.3h-2.7c-0.1-0.6-0.2-1.2-0.2-1.8c-0.5,1.2-1.8,2-3.8,2s-4.4-2.1-4.4-4.1
	s1.5-4.3,6.2-4.3h1.7v-1.1c0-1.2-0.3-2.2-2.1-2.2c-1.1-0.2-2.1,0.6-2.3,1.7c0,0.1,0,0.2,0,0.3h-3c0.2-2.1,1.4-4.2,5.3-4.2
	s5.2,1.1,5.2,4.3L395.9,65.1z M392.9,62.2h-1.8c-2.6,0-3.1,1.1-3.1,2.1c-0.1,1,0.7,1.8,1.7,1.9c0.1,0,0.2,0,0.3,0
	c2.3,0,2.9-1.5,2.9-3.7V62.2z"/>
<path class="st1" d="M399.8,49.4h3v7.2c0.8-1.3,2.3-2,3.8-1.9c3.4,0,5.2,2.9,5.2,6.5c0,3.6-1.9,7.4-5.6,7.4c-2,0-2.9-0.8-3.4-1.7
	s-0.1,1-0.1,1.5h-3c0-0.9,0.1-2.6,0.1-4V49.4z M408.7,61.4c0-2.4-0.9-4.1-3-4.1s-3,1.5-3,4.3s0.7,4.5,3,4.5S408.7,64.2,408.7,61.4"
	/>
<rect x="415.2" y="49.4" class="st1" width="3.1" height="18.9"/>
<path class="st1" d="M424.7,62.3c0,2,0.8,3.9,2.9,3.9c1.2,0.1,2.2-0.7,2.6-1.8h3c-0.6,2.6-3,4.4-5.7,4.2c-4.2,0-5.9-3-5.9-6.9
	s1.6-7,6-7s5.7,3.2,5.7,6.6v1L424.7,62.3z M430.3,60.3c0-1.8-0.7-3.2-2.7-3.2s-2.8,1.8-2.8,3.2H430.3z"/>
<polygon class="st1" points="195.4,88.8 187.6,88.8 187.6,94.2 196.2,94.2 195.8,96.8 184.5,96.8 184.5,78.9 195.8,78.9 195.8,81.5 
	187.6,81.5 187.6,86.1 195.4,86.1 "/>
<path class="st1" d="M199.3,87.6v-4.2h3c0,0.2,0.1,1.2,0.1,1.8c0.7-1.4,2.2-2.2,3.8-2.1c2.7,0,4.2,1.7,4.2,4.9v8.8h-3.1v-8.2
	c0-1.7-0.4-2.9-2.2-2.9s-2.7,1.2-2.7,3.7v7.4h-3.1V87.6z"/>
<path class="st1" d="M216.9,90.7c-0.1,2,0.7,3.9,2.9,3.9c1.1,0,2.2-0.7,2.5-1.8h3c-0.6,2.6-3,4.4-5.6,4.2c-4.3,0-5.9-3-5.9-6.9
	s1.6-7,6-7s5.7,3.2,5.7,6.6v1L216.9,90.7z M222.5,88.7c-0.1-1.8-0.8-3.2-2.8-3.2s-2.7,1.8-2.8,3.2H222.5z"/>
<path class="st1" d="M228.8,87.9v-4.5h3c0,0.6,0.1,1.4,0.1,2.4c0.7-1.7,2.3-2.7,4.1-2.6v3.1c-2.8,0-4.1,1.2-4.1,4.2v6.3h-3.1V87.9z"
	/>
<path class="st1" d="M249.6,95.5c0,4.2-1.6,6.7-6.1,6.7s-5.4-2.3-5.6-4.3h3c0.3,1.2,1.5,2,2.8,1.9c2.4,0,3-1.5,3-4.1v-0.9
	c-0.8,1.3-2.2,2-3.7,1.9c-3.2,0-5.3-2.6-5.3-6.7s2.5-6.9,5.5-6.9s3.1,0.8,3.4,1.6s0.1-1.1,0.1-1.3h3c0,0.6-0.1,2.1-0.1,4V95.5z
	 M240.8,89.9c0,2.6,1.1,4.2,3,4.2s2.9-1.3,2.9-4.2s-0.4-4.2-2.8-4.2S240.8,87,240.8,89.9"/>
<path class="st1" d="M255.6,83.4c1.8,5.9,2.7,9.1,3,10.6l0,0c0.4-1.5,1.6-6,2.9-10.6h3.1L260,97.3c-1.4,4.3-2.8,4.9-5.1,4.9
	l-1.3-0.2v-2.5h1.2c1.3,0,1.8-0.9,2.3-2.3l-4.7-13.9L255.6,83.4z"/>
<path class="st1" d="M278.5,92.1l-1.4,4.7H274c0.6-1.8,4.9-16,5.6-17.9h4l5.9,17.9h-3.3l-1.6-4.7H278.5z M284,89.5
	c-1.3-4-2.1-6.6-2.5-8.2l0,0c-0.5,2-1.3,4.8-2.4,8.2H284z"/>
<path class="st1" d="M294.3,92.7c0.2,1.3,1.3,2.2,2.6,2c0,0,0,0,0,0c1.4,0,2.1-0.6,2.1-1.6s-0.8-1.4-2.9-2s-4.3-2.2-4.3-4
	s1.1-4,4.9-4s4.8,1.8,5,4h-3c-0.1-0.8-0.6-1.7-2.2-1.7s-1.7,0.5-1.7,1.4s0.5,1.2,2.6,1.7s4.6,2.2,4.6,4.3s-2.2,4.2-5.2,4.2
	s-5.2-1.4-5.5-4.3H294.3z"/>
<path class="st1" d="M307.6,92.7c0.2,1.2,1.3,2.1,2.5,2c1.5,0,2.2-0.6,2.2-1.6s-0.8-1.4-3-2s-4.3-2.2-4.3-4s1.2-4,4.9-4
	s4.9,1.8,5.1,4h-3c-0.2-1.1-1.1-1.8-2.2-1.7c-1.1,0-1.7,0.5-1.7,1.4s0.5,1.2,2.5,1.7c3.6,0.9,4.7,2.2,4.7,4.3S313.1,97,310,97
	s-5.1-1.4-5.4-4.3H307.6z"/>
<path class="st1" d="M330.2,89.9c0,3.9-1.8,7.1-6.3,7.1s-6.1-3.4-6.1-7.1s1.9-6.8,6.3-6.8S330.2,86.2,330.2,89.9 M320.9,89.9
	c0,2.9,1.1,4.7,3.2,4.7s3-1.8,3-4.7s-1-4.3-3.1-4.3S320.9,87.3,320.9,89.9"/>
<path class="st1" d="M344.6,92.2c-0.5,2.7-2.1,4.8-5.7,4.8s-5.9-2.5-5.9-6.9s2.2-7,6.1-7s5.4,2.9,5.5,4.9h-3.1
	c-0.2-1.3-0.8-2.5-2.5-2.5s-2.9,1.8-2.9,4.5s1.1,4.6,2.9,4.6s2.2-1,2.5-2.4H344.6z"/>
<path class="st1" d="M347.7,77.8h3.1v3.1h-3.1V77.8z M347.7,83.4h3.1v13.4h-3.1V83.4z"/>
<path class="st1" d="M365,93.5c0,0.9,0.1,2.4,0.2,3.3h-2.7c-0.1-0.6-0.2-1.2-0.2-1.8c-0.5,1.2-1.8,2-3.8,2s-4.4-2.1-4.4-4.1
	s1.5-4.3,6.2-4.3h1.7v-1.1c0-1.2-0.3-2.2-2.1-2.2c-1.1-0.2-2.1,0.6-2.3,1.7c0,0.1,0,0.2,0,0.3h-3c0.1-2.1,1.4-4.2,5.3-4.2
	s5.1,1.1,5.1,4.3L365,93.5z M362.1,90.6h-1.8c-2.6,0-3.1,1.1-3.1,2.1c-0.1,1,0.7,1.8,1.7,1.9c0.1,0,0.2,0,0.3,0
	c2.3,0,2.9-1.5,2.9-3.7V90.6z"/>
<path class="st1" d="M367.5,83.4h2v-3.7h3v3.7h2.5v2.4h-2.5v7.4c0,0.9,0.3,1.4,1.4,1.4h0.8v2.2c-0.7,0.2-1.3,0.2-2,0.2
	c-2.3,0-3.2-0.9-3.2-3.3v-7.9h-2L367.5,83.4z"/>
<path class="st1" d="M377.9,77.8h3.1v3.1h-3.1V77.8z M377.9,83.4h3.1v13.4h-3.1V83.4z"/>
<path class="st1" d="M396.7,89.9c0,3.9-1.8,7.1-6.3,7.1s-6.1-3.4-6.1-7.1s1.9-6.8,6.3-6.8S396.7,86.2,396.7,89.9 M387.4,89.9
	c0,2.9,1.1,4.7,3.2,4.7s3-1.8,3-4.7s-1-4.3-3.1-4.3S387.4,87.3,387.4,89.9"/>
<path class="st1" d="M400,87.6v-4.2h3c0,0.2,0.1,1.2,0.1,1.8c0.7-1.4,2.2-2.2,3.8-2.1c2.7,0,4.2,1.7,4.2,4.9v8.8H408v-8.2
	c0-1.7-0.4-2.9-2.2-2.9s-2.7,1.2-2.7,3.7v7.4H400L400,87.6z"/>
<path class="st1" d="M187.4,125.1l-2.7-9.8h1.4c0.8,3.2,1.8,7.3,2,8.4l0,0c0.3-1.3,1.6-5.9,2.3-8.4h1.3c0.5,2.2,1.9,7.2,2.1,8.4l0,0
	c0.4-1.7,1.7-6.4,2.3-8.4h1.3l-2.9,9.8h-1.4c-0.6-2.2-1.9-6.9-2.1-8.1l0,0c-0.3,1.5-1.6,5.9-2.2,8.1H187.4z"/>
<rect x="200.1" y="115.3" class="st1" width="1.3" height="9.9"/>
<path class="st1" d="M205,125.1v-9.8h1.8c1.4,2.3,4.5,7.2,5,8.3h0.1c-0.1-1.3-0.1-2.9-0.1-4.5v-3.8h1.2v9.8h-1.6l-5.2-8.5l0,0
	c0.1,1.1,0.1,2.8,0.1,4.6v3.9H205z"/>
<path class="st1" d="M216.7,115.3h3.5c2.5-0.1,4.6,1.8,4.7,4.3c0,0.2,0,0.3,0,0.5c0.2,2.6-1.8,4.8-4.4,5c-0.1,0-0.2,0-0.3,0h-3.5
	V115.3z M218,124h2.1c2.3,0,3.4-1.6,3.4-3.9s-1-3.7-3.4-3.7H218V124z"/>
<rect x="227.3" y="123.1" class="st1" width="1.3" height="2.1"/>
<path class="st1" d="M237.5,122.4c0.2,1.2,1.3,1.9,2.5,1.8c1.6,0,2.2-0.7,2.2-1.6s-0.5-1.6-2.5-2.1s-3.1-1.3-3.1-2.7s1-2.7,3.2-2.7
	s3.4,1.4,3.5,2.7H242c-0.2-1-1.2-1.7-2.2-1.6c-1.2,0-1.9,0.5-1.9,1.5s0.6,1.3,2.3,1.7s3.3,1.8,3.3,3s-1.2,2.9-3.6,2.9
	s-3.5-1.4-3.7-2.9L237.5,122.4z"/>
<path class="st1" d="M255.2,120.2c0,2.7-1.5,5.1-4.6,5.1s-4.5-2.3-4.5-5.1s1.6-5.1,4.6-5.1S255.2,117.2,255.2,120.2 M247.4,120.2
	c0,2.1,1.1,4,3.2,4s3.2-1.9,3.2-4s-1-4-3.2-4S247.4,118.1,247.4,120.2"/>
<polygon class="st1" points="258.4,115.3 259.7,115.3 259.7,124 264.9,124 264.7,125.2 258.4,125.2 "/>
<path class="st1" d="M269.4,122.2l-1.1,2.9H267l3.5-9.8h1.6l3.7,9.8h-1.4l-1.1-2.9H269.4z M273,121.1c-1-2.6-1.5-4-1.7-4.8l0,0
	c-0.3,0.9-0.8,2.5-1.6,4.8H273z"/>
<path class="st1" d="M279.8,120.8v4.3h-1.3v-9.8h3.8c2.1,0,3.1,1.1,3.1,2.6c0.1,1.1-0.6,2-1.6,2.3c0.8,0.3,1.5,0.9,1.5,2.6v0.4
	c-0.1,0.6,0,1.3,0.1,1.9h-1.3c-0.1-0.7-0.1-1.4-0.1-2.1v-0.2c0-1.4-0.4-2-2.2-2L279.8,120.8z M279.8,119.7h2.1
	c1.5,0,2.2-0.6,2.2-1.7s-0.7-1.6-2-1.6h-2.3L279.8,119.7z"/>
<rect x="288.6" y="123.1" class="st1" width="1.3" height="2.1"/>
<path class="st1" d="M298.7,122.4c0.2,1.2,1.3,1.9,2.5,1.8c1.6,0,2.2-0.7,2.2-1.6s-0.5-1.6-2.5-2.1s-3.1-1.3-3.1-2.7
	s1.1-2.7,3.3-2.7s3.3,1.4,3.4,2.7h-1.3c-0.2-0.9-0.7-1.6-2.2-1.6s-1.9,0.5-1.9,1.5s0.6,1.3,2.3,1.7s3.4,1.8,3.4,3s-1.2,2.9-3.6,2.9
	s-3.6-1.4-3.8-2.9L298.7,122.4z"/>
<polygon class="st1" points="309.9,116.4 306.7,116.4 306.7,115.3 314.4,115.3 314.4,116.4 311.2,116.4 311.2,125.2 309.9,125.2 "/>
<path class="st1" d="M325.1,120.2c0,2.7-1.5,5.1-4.6,5.1s-4.5-2.3-4.5-5.1s1.6-5.1,4.6-5.1S325.1,117.2,325.1,120.2 M317.4,120.2
	c0,2.1,1,4,3.2,4s3.2-1.9,3.2-4s-1.1-4-3.2-4S317.4,118.1,317.4,120.2"/>
<path class="st1" d="M329.6,120.8v4.3h-1.3v-9.8h3.9c2,0,3.1,1.1,3.1,2.6c0.1,1.1-0.6,2.1-1.7,2.3c0.8,0.3,1.5,0.9,1.5,2.6v0.4
	c0,0.6,0,1.3,0.2,1.9H334c-0.2-0.7-0.3-1.4-0.2-2.1v-0.2c0-1.4-0.4-2-2.2-2L329.6,120.8z M329.6,119.7h2.2c1.5,0,2.1-0.6,2.1-1.7
	s-0.6-1.6-2-1.6h-2.3L329.6,119.7z"/>
<path class="st1" d="M340.1,122.2l-1.1,2.9h-1.3l3.5-9.8h1.6l3.7,9.8h-1.4l-1.1-2.9H340.1z M343.7,121.1c-0.9-2.6-1.5-4-1.7-4.8l0,0
	c-0.2,0.9-0.8,2.5-1.6,4.8H343.7z"/>
<path class="st1" d="M356.9,125.1h-1c-0.1-0.4-0.2-0.9-0.2-1.3c-0.6,1-1.8,1.6-3,1.5c-2.9,0-4.4-2.2-4.4-5s1.6-5.2,4.6-5.2
	s3.8,1.3,4,3h-1.3c-0.3-1.2-1.5-2-2.7-1.9c-2.3,0-3.2,1.8-3.2,4s0.9,4,3.1,4s2.8-1.5,2.8-3.2h-2.8v-1.1h4.1V125.1z"/>
<polygon class="st1" points="366.6,120.5 361.7,120.5 361.7,124 367.1,124 366.9,125.2 360.4,125.2 360.4,115.3 366.8,115.3 
	366.8,116.4 361.7,116.4 361.7,119.4 366.6,119.4 "/>
<rect x="369.6" y="123.1" class="st1" width="1.3" height="2.1"/>
</svg>
